<?xml version="1.0" encoding="UTF-8"?>
<svg width="45px" height="37px" viewBox="0 0 45 37" version="1.1" xmlns="http://www.w3.org/2000/svg" xmlns:xlink="http://www.w3.org/1999/xlink">
    <title>􀥮</title>
    <g id="Page-1" stroke="none" stroke-width="1" fill="none" fill-rule="evenodd">
        <g id="Freedom-Prototype-·-Connections" transform="translate(-173.000000, -112.000000)" fill="#007AFF" fill-rule="nonzero">
            <g id="􀥮" transform="translate(173.703520, 112.322601)">
                <path d="M0,29.5595398 C0,31.6469421 0.550186157,33.2354736 1.65055847,34.3251343 C2.75093079,35.4147949 4.35250854,35.9596252 6.45529175,35.9596252 L27.7951355,35.9596252 C29.912384,35.9596252 31.5203247,35.4161682 32.6189575,34.3292542 C33.7175903,33.2423401 34.2669067,31.6578369 34.2669067,29.5757446 L34.2669067,23.7345886 C34.2669067,23.5229187 34.3284302,23.3990021 34.4514771,23.3628387 C34.5745239,23.3266754 34.7059021,23.3475037 34.8456116,23.4253235 C35.1109314,23.5545959 35.3825684,23.6694031 35.6605225,23.7697449 C35.9384766,23.8700867 36.2306671,23.9480896 36.5370941,24.0037537 C36.8435211,24.0594177 37.158783,24.0872498 37.4828796,24.0872498 C38.6856995,24.0872498 39.7446442,23.8297577 40.6597137,23.3147736 C41.5747833,22.7997894 42.2891235,22.0833893 42.8027344,21.1655731 C43.3163452,20.247757 43.5731506,19.1906433 43.5731506,17.9942322 C43.5731506,16.7914124 43.3163452,15.7311401 42.8027344,14.8134155 C42.2891235,13.8956909 41.5747833,13.1792908 40.6597137,12.6642151 C39.7446442,12.1491394 38.6856995,11.8916016 37.4828796,11.8916016 C37.158783,11.8916016 36.8435211,11.9194336 36.5370941,11.9750977 C36.2306671,12.0307617 35.9384766,12.1088104 35.6605225,12.2092438 C35.3825684,12.3096771 35.1109314,12.4290161 34.8456116,12.5672607 C34.7059021,12.6359253 34.5745239,12.6522217 34.4514771,12.6161499 C34.3284302,12.5800781 34.2669067,12.4561157 34.2669067,12.2442627 L34.2669067,6.37042236 C34.2669067,4.28833008 33.7175903,2.70606995 32.6189575,1.62364197 C31.5203247,0.541213989 29.912384,0 27.7951355,0 L6.45529175,0 C4.35250854,0 2.75093079,0.54258728 1.65055847,1.62776184 C0.550186157,2.7129364 0,4.30380249 0,6.40036011 L0,14.1435242 C0,14.9332581 0.240509033,15.5301819 0.7215271,15.9342957 C1.20254517,16.3384094 1.75167847,16.5404663 2.368927,16.5404663 C2.77871704,16.5404663 3.18466187,16.4474945 3.58676147,16.2615509 C3.98886108,16.0756073 4.33822632,15.7984314 4.63485718,15.4300232 C4.84140015,15.1811829 5.12132263,14.8905945 5.47462463,14.5582581 C5.82792664,14.2259216 6.26728821,13.9367981 6.79270935,13.6908875 C7.31813049,13.4449768 7.94760132,13.3220215 8.68112183,13.3220215 C9.56002808,13.3220215 10.3621216,13.5396881 11.0874023,13.9750214 C11.8126831,14.4103546 12.3952332,14.9980316 12.8350525,15.7380524 C13.2748718,16.4780731 13.5082397,17.2947693 13.5351562,18.1881409 C13.5620728,19.087738 13.3556213,19.905304 12.915802,20.6408386 C12.4759827,21.3763733 11.8822632,21.9624939 11.1346436,22.3992004 C10.3870239,22.835907 9.56918335,23.0542603 8.68112183,23.0542603 C7.94760132,23.0542603 7.31813049,22.9313049 6.79270935,22.6853943 C6.26728821,22.4394836 5.82792664,22.1496735 5.47462463,21.8159637 C5.12132263,21.482254 4.84140015,21.190979 4.63485718,20.9421387 C4.33822632,20.5764771 3.98886108,20.3006744 3.58676147,20.1147308 C3.18466187,19.9287872 2.77871704,19.8358154 2.368927,19.8358154 C1.75167847,19.8358154 1.20254517,20.0378723 0.7215271,20.4419861 C0.240509033,20.8460999 0,21.4430237 0,22.2327576 L0,29.5595398 Z" id="Path"></path>
            </g>
        </g>
    </g>
</svg>